<svg viewBox="2384.0 3370.0 8.0 8.0" ><path transform="translate(2382.0, 3368.0)" d="M 5.996000289916992 2 C 3.788000345230103 2 2 3.79200005531311 2 6 C 2 8.208000183105469 3.788000345230103 10 5.996000289916992 10 C 8.208000183105469 10 10 8.208000183105469 10 6 C 10 3.79200005531311 8.208000183105469 2 5.996000289916992 2 Z M 6 9.199999809265137 C 4.23199987411499 9.199999809265137 2.800000190734863 7.76800012588501 2.800000190734863 6 C 2.800000190734863 4.23199987411499 4.23199987411499 2.800000190734863 6 2.800000190734863 C 7.76800012588501 2.800000190734863 9.199999809265137 4.23199987411499 9.199999809265137 6 C 9.199999809265137 7.76800012588501 7.76800012588501 9.199999809265137 6 9.199999809265137 Z M 7.400000095367432 5.600000381469727 C 7.732000350952148 5.600000381469727 8 5.332000255584717 8 5 C 8 4.668000221252441 7.732000350952148 4.400000095367432 7.400000095367432 4.400000095367432 C 7.068000316619873 4.400000095367432 6.799999713897705 4.668000221252441 6.799999713897705 5 C 6.799999713897705 5.332000255584717 7.068000316619873 5.600000381469727 7.400000095367432 5.600000381469727 Z M 4.600000381469727 5.600000381469727 C 4.932000160217285 5.600000381469727 5.200000286102295 5.332000255584717 5.200000286102295 5 C 5.200000286102295 4.668000221252441 4.932000160217285 4.400000095367432 4.600000381469727 4.400000095367432 C 4.26800012588501 4.400000095367432 4 4.668000221252441 4 5 C 4 5.332000255584717 4.26800012588501 5.600000381469727 4.600000381469727 5.600000381469727 Z M 6 8.199999809265137 C 6.931999206542969 8.199999809265137 7.723999977111816 7.616000652313232 8.044000625610352 6.799999713897705 L 3.956000328063965 6.799999713897705 C 4.276000022888184 7.616000652313232 5.068000316619873 8.199999809265137 6 8.199999809265137 Z" fill="#fd0000" stroke="none" stroke-width="1" stroke-miterlimit="4" stroke-linecap="butt" /></svg>